<svg xmlns="http://www.w3.org/2000/svg" width="1766.652" height="738.31" viewBox="0 0 1766.652 738.31"><defs><style>.a,.b,.d{fill:#fff;}.a{opacity:0.5;}.b{opacity:0.1;}.c{fill:#0497e3;opacity:0.4;}.d{opacity:0.3;}.e{opacity:0.68;}.f{fill:none;stroke:#707070;}.g{opacity:0.32;}.h{fill:#575757;}</style></defs><g transform="translate(45 -288.69)"><path class="a" d="M41.45,130.62v27.93H69.39Z" transform="translate(202.61 752.07)"/><path class="b" d="M130.62,158.55h27.93V130.62Z" transform="translate(85.07 158.07)"/><path class="c" d="M130.62,158.55h27.93V130.62Z" transform="translate(1503.07 580.07)"/><path class="d" d="M69.39,41.45H41.45V69.39Z" transform="translate(1124.61 641.55)"/><g class="e" transform="translate(1104.15 302.771)"><path class="f" d="M1873.718,1169.2v621.885h-617Z" transform="translate(-1256.716 -1169.202)"/><g transform="translate(81.191 539.587) rotate(-45)"><path class="f" d="M0,20.943V0" transform="translate(10.053 0)"/><path class="f" d="M0,20.943V0" transform="translate(331.735 0)"/><path class="f" d="M0,20.943V0" transform="translate(170.894 0)"/><path class="f" d="M0,20.943V0" transform="translate(492.576 0)"/><path class="f" d="M0,20.943V0" transform="translate(90.473 0)"/><path class="f" d="M0,20.943V0" transform="translate(412.156 0)"/><path class="f" d="M0,20.943V0" transform="translate(251.314 0)"/><path class="f" d="M0,20.943V0" transform="translate(572.997 0)"/><path class="f" d="M0,20.943V0" transform="translate(50.263 0)"/><path class="f" d="M0,20.943V0" transform="translate(371.945 0)"/><path class="f" d="M0,20.943V0" transform="translate(211.104 0)"/><path class="f" d="M0,20.943V0" transform="translate(532.786 0)"/><path class="f" d="M0,20.943V0" transform="translate(130.683 0)"/><path class="f" d="M0,20.943V0" transform="translate(452.366 0)"/><path class="f" d="M0,20.943V0" transform="translate(291.525 0)"/><path class="f" d="M0,20.943V0" transform="translate(613.207 0)"/><path class="f" d="M0,20.943V0" transform="translate(30.158 0)"/><path class="f" d="M0,20.943V0" transform="translate(351.84 0)"/><path class="f" d="M0,20.943V0" transform="translate(190.999 0)"/><path class="f" d="M0,20.943V0" transform="translate(512.681 0)"/><path class="f" d="M0,20.943V0" transform="translate(110.578 0)"/><path class="f" d="M0,20.943V0" transform="translate(432.261 0)"/><path class="f" d="M0,20.943V0" transform="translate(271.419 0)"/><path class="f" d="M0,20.943V0" transform="translate(593.102 0)"/><path class="f" d="M0,20.943V0" transform="translate(70.368 0)"/><path class="f" d="M0,20.943V0" transform="translate(392.05 0)"/><path class="f" d="M0,20.943V0" transform="translate(231.209 0)"/><path class="f" d="M0,20.943V0" transform="translate(552.892 0)"/><path class="f" d="M0,20.943V0" transform="translate(150.789 0)"/><path class="f" d="M0,20.943V0" transform="translate(472.471 0)"/><path class="f" d="M0,20.943V0" transform="translate(311.63 0)"/><path class="f" d="M0,20.943V0" transform="translate(633.312 0)"/><path class="f" d="M0,35.5V0" transform="translate(20.105 0)"/><path class="f" d="M0,35.5V0" transform="translate(341.788 0)"/><path class="f" d="M0,35.5V0" transform="translate(180.946 0)"/><path class="f" d="M0,35.5V0" transform="translate(502.629 0)"/><path class="f" d="M0,35.5V0" transform="translate(100.526 0)"/><path class="f" d="M0,35.5V0" transform="translate(422.208 0)"/><path class="f" d="M0,35.5V0" transform="translate(261.367 0)"/><path class="f" d="M0,35.5V0" transform="translate(583.049 0)"/><path class="f" d="M0,35.5V0" transform="translate(60.315 0)"/><path class="f" d="M0,35.5V0" transform="translate(381.998 0)"/><path class="f" d="M0,35.5V0" transform="translate(221.157 0)"/><path class="f" d="M0,35.5V0" transform="translate(542.839 0)"/><path class="f" d="M0,35.5V0" transform="translate(140.736 0)"/><path class="f" d="M0,35.5V0" transform="translate(462.418 0)"/><path class="f" d="M0,35.5V0" transform="translate(301.577 0)"/><path class="f" d="M0,35.5V0" transform="translate(623.26 0)"/><path class="f" d="M0,35.5V0" transform="translate(40.21 0)"/><path class="f" d="M0,35.5V0" transform="translate(361.893 0)"/><path class="f" d="M0,35.5V0" transform="translate(201.051 0)"/><path class="f" d="M0,35.5V0" transform="translate(522.734 0)"/><path class="f" d="M0,35.5V0" transform="translate(120.631 0)"/><path class="f" d="M0,35.5V0" transform="translate(442.313 0)"/><path class="f" d="M0,35.5V0" transform="translate(281.472 0)"/><path class="f" d="M0,35.5V0" transform="translate(603.154 0)"/><path class="f" d="M0,35.5V0" transform="translate(80.421 0)"/><path class="f" d="M0,35.5V0" transform="translate(402.103 0)"/><path class="f" d="M0,35.5V0" transform="translate(241.262 0)"/><path class="f" d="M0,35.5V0" transform="translate(562.944 0)"/><path class="f" d="M0,35.5V0" transform="translate(160.841 0)"/><path class="f" d="M0,35.5V0" transform="translate(482.524 0)"/><path class="f" d="M0,35.5V0" transform="translate(321.682 0)"/><path class="f" d="M0,35.5V0" transform="translate(643.365 0)"/><path class="f" d="M0,35.5V0" transform="translate(0 0)"/></g><path class="f" d="M1440.458,1169.2v185.2H1256.716Z" transform="translate(-954.288 -866.057)"/></g><g class="g" transform="translate(-433 -512)"><rect class="h" width="8" height="8" transform="translate(388 1307)"/><rect class="h" width="8" height="8" transform="translate(388 1419)"/><rect class="h" width="8" height="8" transform="translate(388 1371)"/><rect class="h" width="8" height="8" transform="translate(388 1483)"/><rect class="h" width="8" height="8" transform="translate(388 1339)"/><rect class="h" width="8" height="8" transform="translate(388 1451)"/><rect class="h" width="8" height="8" transform="translate(388 1403)"/><rect class="h" width="8" height="8" transform="translate(388 1515)"/><rect class="h" width="8" height="8" transform="translate(388 1323)"/><rect class="h" width="8" height="8" transform="translate(388 1435)"/><rect class="h" width="8" height="8" transform="translate(388 1387)"/><rect class="h" width="8" height="8" transform="translate(388 1499)"/><rect class="h" width="8" height="8" transform="translate(388 1355)"/><rect class="h" width="8" height="8" transform="translate(388 1467)"/><rect class="h" width="8" height="8" transform="translate(388 1419)"/><rect class="h" width="8" height="8" transform="translate(388 1531)"/><rect class="h" width="8" height="8" transform="translate(452 1307)"/><rect class="h" width="8" height="8" transform="translate(452 1419)"/><rect class="h" width="8" height="8" transform="translate(452 1371)"/><rect class="h" width="8" height="8" transform="translate(452 1483)"/><rect class="h" width="8" height="8" transform="translate(452 1339)"/><rect class="h" width="8" height="8" transform="translate(452 1451)"/><rect class="h" width="8" height="8" transform="translate(452 1403)"/><rect class="h" width="8" height="8" transform="translate(452 1515)"/><rect class="h" width="8" height="8" transform="translate(452 1323)"/><rect class="h" width="8" height="8" transform="translate(452 1435)"/><rect class="h" width="8" height="8" transform="translate(452 1387)"/><rect class="h" width="8" height="8" transform="translate(452 1499)"/><rect class="h" width="8" height="8" transform="translate(452 1355)"/><rect class="h" width="8" height="8" transform="translate(452 1467)"/><rect class="h" width="8" height="8" transform="translate(452 1419)"/><rect class="h" width="8" height="8" transform="translate(452 1531)"/><rect class="h" width="8" height="8" transform="translate(420 1307)"/><rect class="h" width="8" height="8" transform="translate(420 1419)"/><rect class="h" width="8" height="8" transform="translate(420 1371)"/><rect class="h" width="8" height="8" transform="translate(420 1483)"/><rect class="h" width="8" height="8" transform="translate(420 1339)"/><rect class="h" width="8" height="8" transform="translate(420 1451)"/><rect class="h" width="8" height="8" transform="translate(420 1403)"/><rect class="h" width="8" height="8" transform="translate(420 1515)"/><rect class="h" width="8" height="8" transform="translate(420 1323)"/><rect class="h" width="8" height="8" transform="translate(420 1435)"/><rect class="h" width="8" height="8" transform="translate(420 1387)"/><rect class="h" width="8" height="8" transform="translate(420 1499)"/><rect class="h" width="8" height="8" transform="translate(420 1355)"/><rect class="h" width="8" height="8" transform="translate(420 1467)"/><rect class="h" width="8" height="8" transform="translate(420 1419)"/><rect class="h" width="8" height="8" transform="translate(420 1531)"/><rect class="h" width="8" height="8" transform="translate(484 1307)"/><rect class="h" width="8" height="8" transform="translate(484 1419)"/><rect class="h" width="8" height="8" transform="translate(484 1371)"/><rect class="h" width="8" height="8" transform="translate(484 1483)"/><rect class="h" width="8" height="8" transform="translate(484 1339)"/><rect class="h" width="8" height="8" transform="translate(484 1451)"/><rect class="h" width="8" height="8" transform="translate(484 1403)"/><rect class="h" width="8" height="8" transform="translate(484 1515)"/><rect class="h" width="8" height="8" transform="translate(484 1323)"/><rect class="h" width="8" height="8" transform="translate(484 1435)"/><rect class="h" width="8" height="8" transform="translate(484 1387)"/><rect class="h" width="8" height="8" transform="translate(484 1499)"/><rect class="h" width="8" height="8" transform="translate(484 1355)"/><rect class="h" width="8" height="8" transform="translate(484 1467)"/><rect class="h" width="8" height="8" transform="translate(484 1419)"/><rect class="h" width="8" height="8" transform="translate(484 1531)"/><rect class="h" width="8" height="8" transform="translate(404 1307)"/><rect class="h" width="8" height="8" transform="translate(404 1419)"/><rect class="h" width="8" height="8" transform="translate(404 1371)"/><rect class="h" width="8" height="8" transform="translate(404 1483)"/><rect class="h" width="8" height="8" transform="translate(404 1339)"/><rect class="h" width="8" height="8" transform="translate(404 1451)"/><rect class="h" width="8" height="8" transform="translate(404 1403)"/><rect class="h" width="8" height="8" transform="translate(404 1515)"/><rect class="h" width="8" height="8" transform="translate(404 1323)"/><rect class="h" width="8" height="8" transform="translate(404 1435)"/><rect class="h" width="8" height="8" transform="translate(404 1387)"/><rect class="h" width="8" height="8" transform="translate(404 1499)"/><rect class="h" width="8" height="8" transform="translate(404 1355)"/><rect class="h" width="8" height="8" transform="translate(404 1467)"/><rect class="h" width="8" height="8" transform="translate(404 1419)"/><rect class="h" width="8" height="8" transform="translate(404 1531)"/><rect class="h" width="8" height="8" transform="translate(468 1307)"/><rect class="h" width="8" height="8" transform="translate(468 1419)"/><rect class="h" width="8" height="8" transform="translate(468 1371)"/><rect class="h" width="8" height="8" transform="translate(468 1483)"/><rect class="h" width="8" height="8" transform="translate(468 1339)"/><rect class="h" width="8" height="8" transform="translate(468 1451)"/><rect class="h" width="8" height="8" transform="translate(468 1403)"/><rect class="h" width="8" height="8" transform="translate(468 1515)"/><rect class="h" width="8" height="8" transform="translate(468 1323)"/><rect class="h" width="8" height="8" transform="translate(468 1435)"/><rect class="h" width="8" height="8" transform="translate(468 1387)"/><rect class="h" width="8" height="8" transform="translate(468 1499)"/><rect class="h" width="8" height="8" transform="translate(468 1355)"/><rect class="h" width="8" height="8" transform="translate(468 1467)"/><rect class="h" width="8" height="8" transform="translate(468 1419)"/><rect class="h" width="8" height="8" transform="translate(468 1531)"/><rect class="h" width="8" height="8" transform="translate(436 1307)"/><rect class="h" width="8" height="8" transform="translate(436 1419)"/><rect class="h" width="8" height="8" transform="translate(436 1371)"/><rect class="h" width="8" height="8" transform="translate(436 1483)"/><rect class="h" width="8" height="8" transform="translate(436 1339)"/><rect class="h" width="8" height="8" transform="translate(436 1451)"/><rect class="h" width="8" height="8" transform="translate(436 1403)"/><rect class="h" width="8" height="8" transform="translate(436 1515)"/><rect class="h" width="8" height="8" transform="translate(436 1323)"/><rect class="h" width="8" height="8" transform="translate(436 1435)"/><rect class="h" width="8" height="8" transform="translate(436 1387)"/><rect class="h" width="8" height="8" transform="translate(436 1499)"/><rect class="h" width="8" height="8" transform="translate(436 1355)"/><rect class="h" width="8" height="8" transform="translate(436 1467)"/><rect class="h" width="8" height="8" transform="translate(436 1419)"/><rect class="h" width="8" height="8" transform="translate(436 1531)"/><rect class="h" width="8" height="8" transform="translate(500 1307)"/><rect class="h" width="8" height="8" transform="translate(500 1419)"/><rect class="h" width="8" height="8" transform="translate(500 1371)"/><rect class="h" width="8" height="8" transform="translate(500 1483)"/><rect class="h" width="8" height="8" transform="translate(500 1339)"/><rect class="h" width="8" height="8" transform="translate(500 1451)"/><rect class="h" width="8" height="8" transform="translate(500 1403)"/><rect class="h" width="8" height="8" transform="translate(500 1515)"/><rect class="h" width="8" height="8" transform="translate(500 1323)"/><rect class="h" width="8" height="8" transform="translate(500 1435)"/><rect class="h" width="8" height="8" transform="translate(500 1387)"/><rect class="h" width="8" height="8" transform="translate(500 1499)"/><rect class="h" width="8" height="8" transform="translate(500 1355)"/><rect class="h" width="8" height="8" transform="translate(500 1467)"/><rect class="h" width="8" height="8" transform="translate(500 1419)"/><rect class="h" width="8" height="8" transform="translate(500 1531)"/></g><g transform="translate(-40)"><g class="g" transform="translate(1876 -41) rotate(90)"><rect class="h" width="8" height="8" transform="translate(388 1307)"/><rect class="h" width="8" height="8" transform="translate(388 1419)"/><rect class="h" width="8" height="8" transform="translate(388 1371)"/><rect class="h" width="8" height="8" transform="translate(388 1483)"/><rect class="h" width="8" height="8" transform="translate(388 1339)"/><rect class="h" width="8" height="8" transform="translate(388 1451)"/><rect class="h" width="8" height="8" transform="translate(388 1403)"/><rect class="h" width="8" height="8" transform="translate(388 1515)"/><rect class="h" width="8" height="8" transform="translate(388 1323)"/><rect class="h" width="8" height="8" transform="translate(388 1435)"/><rect class="h" width="8" height="8" transform="translate(388 1387)"/><rect class="h" width="8" height="8" transform="translate(388 1499)"/><rect class="h" width="8" height="8" transform="translate(388 1355)"/><rect class="h" width="8" height="8" transform="translate(388 1467)"/><rect class="h" width="8" height="8" transform="translate(388 1419)"/><rect class="h" width="8" height="8" transform="translate(388 1531)"/><rect class="h" width="8" height="8" transform="translate(452 1307)"/><rect class="h" width="8" height="8" transform="translate(452 1419)"/><rect class="h" width="8" height="8" transform="translate(452 1371)"/><rect class="h" width="8" height="8" transform="translate(452 1483)"/><rect class="h" width="8" height="8" transform="translate(452 1339)"/><rect class="h" width="8" height="8" transform="translate(452 1451)"/><rect class="h" width="8" height="8" transform="translate(452 1403)"/><rect class="h" width="8" height="8" transform="translate(452 1515)"/><rect class="h" width="8" height="8" transform="translate(452 1323)"/><rect class="h" width="8" height="8" transform="translate(452 1435)"/><rect class="h" width="8" height="8" transform="translate(452 1387)"/><rect class="h" width="8" height="8" transform="translate(452 1499)"/><rect class="h" width="8" height="8" transform="translate(452 1355)"/><rect class="h" width="8" height="8" transform="translate(452 1467)"/><rect class="h" width="8" height="8" transform="translate(452 1419)"/><rect class="h" width="8" height="8" transform="translate(452 1531)"/><rect class="h" width="8" height="8" transform="translate(420 1307)"/><rect class="h" width="8" height="8" transform="translate(420 1419)"/><rect class="h" width="8" height="8" transform="translate(420 1371)"/><rect class="h" width="8" height="8" transform="translate(420 1483)"/><rect class="h" width="8" height="8" transform="translate(420 1339)"/><rect class="h" width="8" height="8" transform="translate(420 1451)"/><rect class="h" width="8" height="8" transform="translate(420 1403)"/><rect class="h" width="8" height="8" transform="translate(420 1515)"/><rect class="h" width="8" height="8" transform="translate(420 1323)"/><rect class="h" width="8" height="8" transform="translate(420 1435)"/><rect class="h" width="8" height="8" transform="translate(420 1387)"/><rect class="h" width="8" height="8" transform="translate(420 1499)"/><rect class="h" width="8" height="8" transform="translate(420 1355)"/><rect class="h" width="8" height="8" transform="translate(420 1467)"/><rect class="h" width="8" height="8" transform="translate(420 1419)"/><rect class="h" width="8" height="8" transform="translate(420 1531)"/><rect class="h" width="8" height="8" transform="translate(484 1307)"/><rect class="h" width="8" height="8" transform="translate(484 1419)"/><rect class="h" width="8" height="8" transform="translate(484 1371)"/><rect class="h" width="8" height="8" transform="translate(484 1483)"/><rect class="h" width="8" height="8" transform="translate(484 1339)"/><rect class="h" width="8" height="8" transform="translate(484 1451)"/><rect class="h" width="8" height="8" transform="translate(484 1403)"/><rect class="h" width="8" height="8" transform="translate(484 1515)"/><rect class="h" width="8" height="8" transform="translate(484 1323)"/><rect class="h" width="8" height="8" transform="translate(484 1435)"/><rect class="h" width="8" height="8" transform="translate(484 1387)"/><rect class="h" width="8" height="8" transform="translate(484 1499)"/><rect class="h" width="8" height="8" transform="translate(484 1355)"/><rect class="h" width="8" height="8" transform="translate(484 1467)"/><rect class="h" width="8" height="8" transform="translate(484 1419)"/><rect class="h" width="8" height="8" transform="translate(484 1531)"/><rect class="h" width="8" height="8" transform="translate(404 1307)"/><rect class="h" width="8" height="8" transform="translate(404 1419)"/><rect class="h" width="8" height="8" transform="translate(404 1371)"/><rect class="h" width="8" height="8" transform="translate(404 1483)"/><rect class="h" width="8" height="8" transform="translate(404 1339)"/><rect class="h" width="8" height="8" transform="translate(404 1451)"/><rect class="h" width="8" height="8" transform="translate(404 1403)"/><rect class="h" width="8" height="8" transform="translate(404 1515)"/><rect class="h" width="8" height="8" transform="translate(404 1323)"/><rect class="h" width="8" height="8" transform="translate(404 1435)"/><rect class="h" width="8" height="8" transform="translate(404 1387)"/><rect class="h" width="8" height="8" transform="translate(404 1499)"/><rect class="h" width="8" height="8" transform="translate(404 1355)"/><rect class="h" width="8" height="8" transform="translate(404 1467)"/><rect class="h" width="8" height="8" transform="translate(404 1419)"/><rect class="h" width="8" height="8" transform="translate(404 1531)"/><rect class="h" width="8" height="8" transform="translate(468 1307)"/><rect class="h" width="8" height="8" transform="translate(468 1419)"/><rect class="h" width="8" height="8" transform="translate(468 1371)"/><rect class="h" width="8" height="8" transform="translate(468 1483)"/><rect class="h" width="8" height="8" transform="translate(468 1339)"/><rect class="h" width="8" height="8" transform="translate(468 1451)"/><rect class="h" width="8" height="8" transform="translate(468 1403)"/><rect class="h" width="8" height="8" transform="translate(468 1515)"/><rect class="h" width="8" height="8" transform="translate(468 1323)"/><rect class="h" width="8" height="8" transform="translate(468 1435)"/><rect class="h" width="8" height="8" transform="translate(468 1387)"/><rect class="h" width="8" height="8" transform="translate(468 1499)"/><rect class="h" width="8" height="8" transform="translate(468 1355)"/><rect class="h" width="8" height="8" transform="translate(468 1467)"/><rect class="h" width="8" height="8" transform="translate(468 1419)"/><rect class="h" width="8" height="8" transform="translate(468 1531)"/><rect class="h" width="8" height="8" transform="translate(436 1307)"/><rect class="h" width="8" height="8" transform="translate(436 1419)"/><rect class="h" width="8" height="8" transform="translate(436 1371)"/><rect class="h" width="8" height="8" transform="translate(436 1483)"/><rect class="h" width="8" height="8" transform="translate(436 1339)"/><rect class="h" width="8" height="8" transform="translate(436 1451)"/><rect class="h" width="8" height="8" transform="translate(436 1403)"/><rect class="h" width="8" height="8" transform="translate(436 1515)"/><rect class="h" width="8" height="8" transform="translate(436 1323)"/><rect class="h" width="8" height="8" transform="translate(436 1435)"/><rect class="h" width="8" height="8" transform="translate(436 1387)"/><rect class="h" width="8" height="8" transform="translate(436 1499)"/><rect class="h" width="8" height="8" transform="translate(436 1355)"/><rect class="h" width="8" height="8" transform="translate(436 1467)"/><rect class="h" width="8" height="8" transform="translate(436 1419)"/><rect class="h" width="8" height="8" transform="translate(436 1531)"/><rect class="h" width="8" height="8" transform="translate(500 1307)"/><rect class="h" width="8" height="8" transform="translate(500 1419)"/><rect class="h" width="8" height="8" transform="translate(500 1371)"/><rect class="h" width="8" height="8" transform="translate(500 1483)"/><rect class="h" width="8" height="8" transform="translate(500 1339)"/><rect class="h" width="8" height="8" transform="translate(500 1451)"/><rect class="h" width="8" height="8" transform="translate(500 1403)"/><rect class="h" width="8" height="8" transform="translate(500 1515)"/><rect class="h" width="8" height="8" transform="translate(500 1323)"/><rect class="h" width="8" height="8" transform="translate(500 1435)"/><rect class="h" width="8" height="8" transform="translate(500 1387)"/><rect class="h" width="8" height="8" transform="translate(500 1499)"/><rect class="h" width="8" height="8" transform="translate(500 1355)"/><rect class="h" width="8" height="8" transform="translate(500 1467)"/><rect class="h" width="8" height="8" transform="translate(500 1419)"/><rect class="h" width="8" height="8" transform="translate(500 1531)"/></g><g class="g" transform="translate(1876 86) rotate(90)"><rect class="h" width="8" height="8" transform="translate(388 1307)"/><rect class="h" width="8" height="8" transform="translate(388 1419)"/><rect class="h" width="8" height="8" transform="translate(388 1371)"/><rect class="h" width="8" height="8" transform="translate(388 1483)"/><rect class="h" width="8" height="8" transform="translate(388 1339)"/><rect class="h" width="8" height="8" transform="translate(388 1451)"/><rect class="h" width="8" height="8" transform="translate(388 1403)"/><rect class="h" width="8" height="8" transform="translate(388 1515)"/><rect class="h" width="8" height="8" transform="translate(388 1323)"/><rect class="h" width="8" height="8" transform="translate(388 1435)"/><rect class="h" width="8" height="8" transform="translate(388 1387)"/><rect class="h" width="8" height="8" transform="translate(388 1499)"/><rect class="h" width="8" height="8" transform="translate(388 1355)"/><rect class="h" width="8" height="8" transform="translate(388 1467)"/><rect class="h" width="8" height="8" transform="translate(388 1419)"/><rect class="h" width="8" height="8" transform="translate(388 1531)"/><rect class="h" width="8" height="8" transform="translate(452 1307)"/><rect class="h" width="8" height="8" transform="translate(452 1419)"/><rect class="h" width="8" height="8" transform="translate(452 1371)"/><rect class="h" width="8" height="8" transform="translate(452 1483)"/><rect class="h" width="8" height="8" transform="translate(452 1339)"/><rect class="h" width="8" height="8" transform="translate(452 1451)"/><rect class="h" width="8" height="8" transform="translate(452 1403)"/><rect class="h" width="8" height="8" transform="translate(452 1515)"/><rect class="h" width="8" height="8" transform="translate(452 1323)"/><rect class="h" width="8" height="8" transform="translate(452 1435)"/><rect class="h" width="8" height="8" transform="translate(452 1387)"/><rect class="h" width="8" height="8" transform="translate(452 1499)"/><rect class="h" width="8" height="8" transform="translate(452 1355)"/><rect class="h" width="8" height="8" transform="translate(452 1467)"/><rect class="h" width="8" height="8" transform="translate(452 1419)"/><rect class="h" width="8" height="8" transform="translate(452 1531)"/><rect class="h" width="8" height="8" transform="translate(420 1307)"/><rect class="h" width="8" height="8" transform="translate(420 1419)"/><rect class="h" width="8" height="8" transform="translate(420 1371)"/><rect class="h" width="8" height="8" transform="translate(420 1483)"/><rect class="h" width="8" height="8" transform="translate(420 1339)"/><rect class="h" width="8" height="8" transform="translate(420 1451)"/><rect class="h" width="8" height="8" transform="translate(420 1403)"/><rect class="h" width="8" height="8" transform="translate(420 1515)"/><rect class="h" width="8" height="8" transform="translate(420 1323)"/><rect class="h" width="8" height="8" transform="translate(420 1435)"/><rect class="h" width="8" height="8" transform="translate(420 1387)"/><rect class="h" width="8" height="8" transform="translate(420 1499)"/><rect class="h" width="8" height="8" transform="translate(420 1355)"/><rect class="h" width="8" height="8" transform="translate(420 1467)"/><rect class="h" width="8" height="8" transform="translate(420 1419)"/><rect class="h" width="8" height="8" transform="translate(420 1531)"/><rect class="h" width="8" height="8" transform="translate(484 1307)"/><rect class="h" width="8" height="8" transform="translate(484 1419)"/><rect class="h" width="8" height="8" transform="translate(484 1371)"/><rect class="h" width="8" height="8" transform="translate(484 1483)"/><rect class="h" width="8" height="8" transform="translate(484 1339)"/><rect class="h" width="8" height="8" transform="translate(484 1451)"/><rect class="h" width="8" height="8" transform="translate(484 1403)"/><rect class="h" width="8" height="8" transform="translate(484 1515)"/><rect class="h" width="8" height="8" transform="translate(484 1323)"/><rect class="h" width="8" height="8" transform="translate(484 1435)"/><rect class="h" width="8" height="8" transform="translate(484 1387)"/><rect class="h" width="8" height="8" transform="translate(484 1499)"/><rect class="h" width="8" height="8" transform="translate(484 1355)"/><rect class="h" width="8" height="8" transform="translate(484 1467)"/><rect class="h" width="8" height="8" transform="translate(484 1419)"/><rect class="h" width="8" height="8" transform="translate(484 1531)"/><rect class="h" width="8" height="8" transform="translate(404 1307)"/><rect class="h" width="8" height="8" transform="translate(404 1419)"/><rect class="h" width="8" height="8" transform="translate(404 1371)"/><rect class="h" width="8" height="8" transform="translate(404 1483)"/><rect class="h" width="8" height="8" transform="translate(404 1339)"/><rect class="h" width="8" height="8" transform="translate(404 1451)"/><rect class="h" width="8" height="8" transform="translate(404 1403)"/><rect class="h" width="8" height="8" transform="translate(404 1515)"/><rect class="h" width="8" height="8" transform="translate(404 1323)"/><rect class="h" width="8" height="8" transform="translate(404 1435)"/><rect class="h" width="8" height="8" transform="translate(404 1387)"/><rect class="h" width="8" height="8" transform="translate(404 1499)"/><rect class="h" width="8" height="8" transform="translate(404 1355)"/><rect class="h" width="8" height="8" transform="translate(404 1467)"/><rect class="h" width="8" height="8" transform="translate(404 1419)"/><rect class="h" width="8" height="8" transform="translate(404 1531)"/><rect class="h" width="8" height="8" transform="translate(468 1307)"/><rect class="h" width="8" height="8" transform="translate(468 1419)"/><rect class="h" width="8" height="8" transform="translate(468 1371)"/><rect class="h" width="8" height="8" transform="translate(468 1483)"/><rect class="h" width="8" height="8" transform="translate(468 1339)"/><rect class="h" width="8" height="8" transform="translate(468 1451)"/><rect class="h" width="8" height="8" transform="translate(468 1403)"/><rect class="h" width="8" height="8" transform="translate(468 1515)"/><rect class="h" width="8" height="8" transform="translate(468 1323)"/><rect class="h" width="8" height="8" transform="translate(468 1435)"/><rect class="h" width="8" height="8" transform="translate(468 1387)"/><rect class="h" width="8" height="8" transform="translate(468 1499)"/><rect class="h" width="8" height="8" transform="translate(468 1355)"/><rect class="h" width="8" height="8" transform="translate(468 1467)"/><rect class="h" width="8" height="8" transform="translate(468 1419)"/><rect class="h" width="8" height="8" transform="translate(468 1531)"/><rect class="h" width="8" height="8" transform="translate(436 1307)"/><rect class="h" width="8" height="8" transform="translate(436 1419)"/><rect class="h" width="8" height="8" transform="translate(436 1371)"/><rect class="h" width="8" height="8" transform="translate(436 1483)"/><rect class="h" width="8" height="8" transform="translate(436 1339)"/><rect class="h" width="8" height="8" transform="translate(436 1451)"/><rect class="h" width="8" height="8" transform="translate(436 1403)"/><rect class="h" width="8" height="8" transform="translate(436 1515)"/><rect class="h" width="8" height="8" transform="translate(436 1323)"/><rect class="h" width="8" height="8" transform="translate(436 1435)"/><rect class="h" width="8" height="8" transform="translate(436 1387)"/><rect class="h" width="8" height="8" transform="translate(436 1499)"/><rect class="h" width="8" height="8" transform="translate(436 1355)"/><rect class="h" width="8" height="8" transform="translate(436 1467)"/><rect class="h" width="8" height="8" transform="translate(436 1419)"/><rect class="h" width="8" height="8" transform="translate(436 1531)"/><rect class="h" width="8" height="8" transform="translate(500 1307)"/><rect class="h" width="8" height="8" transform="translate(500 1419)"/><rect class="h" width="8" height="8" transform="translate(500 1371)"/><rect class="h" width="8" height="8" transform="translate(500 1483)"/><rect class="h" width="8" height="8" transform="translate(500 1339)"/><rect class="h" width="8" height="8" transform="translate(500 1451)"/><rect class="h" width="8" height="8" transform="translate(500 1403)"/><rect class="h" width="8" height="8" transform="translate(500 1515)"/><rect class="h" width="8" height="8" transform="translate(500 1323)"/><rect class="h" width="8" height="8" transform="translate(500 1435)"/><rect class="h" width="8" height="8" transform="translate(500 1387)"/><rect class="h" width="8" height="8" transform="translate(500 1499)"/><rect class="h" width="8" height="8" transform="translate(500 1355)"/><rect class="h" width="8" height="8" transform="translate(500 1467)"/><rect class="h" width="8" height="8" transform="translate(500 1419)"/><rect class="h" width="8" height="8" transform="translate(500 1531)"/></g></g></g></svg>