<svg xmlns="http://www.w3.org/2000/svg" width="344.706" height="99.804" viewBox="0 0 344.706 99.804"><defs><style>.a{fill:#fff;}</style></defs><g transform="translate(-28.84 -27.93)"><path class="a" d="M154.621,64.541V46.45H136.53Z" transform="translate(-37.962 -6.528)"/><path class="a" d="M65.454,46.45H47.37V64.541Z" transform="translate(-6.532 -6.528)"/><path class="a" d="M47.37,135.62V153.7H65.454Z" transform="translate(-6.532 -37.962)"/><path class="a" d="M136.53,153.7h18.091V135.62Z" transform="translate(-37.962 -37.962)"/><path class="a" d="M78.749,27.93,28.84,77.832l49.909,49.9,49.909-49.9Zm21.367,61.933h-.6a2.811,2.811,0,0,1-.647-.065,10.794,10.794,0,0,1-8.145-5.322L81.863,69.052a2.59,2.59,0,0,0-4.532,0l-8.89,15.423a10.82,10.82,0,0,1-8.663,5.368,3.167,3.167,0,0,1-.35,0H59.11a2.914,2.914,0,0,1,0-5.827A4.96,4.96,0,0,0,63.4,81.542l8.929-15.4a8.366,8.366,0,0,1,7.31-4.222h0a8.366,8.366,0,0,1,7.31,4.222l8.9,15.423a4.96,4.96,0,0,0,4.286,2.473,2.914,2.914,0,1,1,0,5.827Z"/><path class="a" d="M235.287,89.892a1.036,1.036,0,0,0-.343-.434.932.932,0,0,0-.557-.168,1.03,1.03,0,0,0-.531.136.855.855,0,0,0-.343.466l-7.945,19.425a.822.822,0,0,0-.032.363.777.777,0,0,0,.214.557.874.874,0,0,0,.647.227.842.842,0,0,0,.486-.149,1.075,1.075,0,0,0,.33-.453l2.214-5.5h9.79l2.253,5.5a1.107,1.107,0,0,0,.35.434.861.861,0,0,0,.524.168.978.978,0,0,0,.647-.227.8.8,0,0,0,.272-.647,1.192,1.192,0,0,0-.065-.363Zm-5.128,12.7L234.3,92.34l4.209,10.269Z" transform="translate(-69.334 -21.63)"/><path class="a" d="M268.808,95.129a6.475,6.475,0,0,0-3.626-1.023,5.982,5.982,0,0,0-1.942.317,6.261,6.261,0,0,0-1.716.887,6.514,6.514,0,0,0-1.366,1.334,5.179,5.179,0,0,0-.466.732V88.5a.9.9,0,0,0-.259-.647.842.842,0,0,0-.648-.272.906.906,0,0,0-.945.919v20.493a.926.926,0,0,0,.932.932.842.842,0,0,0,.648-.272.939.939,0,0,0,.259-.647v-1.988a6.289,6.289,0,0,0,.421.6,6.818,6.818,0,0,0,3.114,2.2,6,6,0,0,0,2,.33A6.4,6.4,0,0,0,268.8,109.1a7.375,7.375,0,0,0,2.525-2.888,8.968,8.968,0,0,0,.932-4.112,8.857,8.857,0,0,0-.932-4.137A7.252,7.252,0,0,0,268.808,95.129Zm.965,10.2a5.77,5.77,0,0,1-1.942,2.3,4.8,4.8,0,0,1-2.81.842,5.018,5.018,0,0,1-2.862-.822,5.62,5.62,0,0,1-1.942-2.292,7.362,7.362,0,0,1-.712-3.237,7.168,7.168,0,0,1,.712-3.237,5.452,5.452,0,0,1,1.942-2.208,5.18,5.18,0,0,1,2.862-.8,5.012,5.012,0,0,1,2.81.8,5.536,5.536,0,0,1,1.942,2.208,7.168,7.168,0,0,1,.706,3.237A7.3,7.3,0,0,1,269.773,105.334Z" transform="translate(-80.724 -21.027)"/><path class="a" d="M294.2,106.311a6.728,6.728,0,0,0-1.56-.829,18.127,18.127,0,0,0-1.852-.57,19.01,19.01,0,0,1-2.066-.647,4.338,4.338,0,0,1-1.47-.906,2.085,2.085,0,0,1-.647-1.412,2.189,2.189,0,0,1,.512-1.5,3.075,3.075,0,0,1,1.295-.848,5.024,5.024,0,0,1,1.638-.265,5.678,5.678,0,0,1,2.137.4,4.591,4.591,0,0,1,1.716,1.224.725.725,0,0,0,.524.253.835.835,0,0,0,.557-.162.92.92,0,0,0,.3-.647.855.855,0,0,0-.272-.647,5.179,5.179,0,0,0-1.489-1.211,6.612,6.612,0,0,0-1.683-.647,7.633,7.633,0,0,0-1.658-.194,6.475,6.475,0,0,0-2.674.537,4.532,4.532,0,0,0-1.884,1.509,3.762,3.762,0,0,0-.648,2.227,3.587,3.587,0,0,0,.434,1.832A4.06,4.06,0,0,0,286.6,105.1a7.258,7.258,0,0,0,1.7.868c.647.233,1.295.44,1.943.647a13.823,13.823,0,0,1,1.852.583,3.884,3.884,0,0,1,1.4.906,2.033,2.033,0,0,1,.544,1.489,2.111,2.111,0,0,1-.544,1.489,3.315,3.315,0,0,1-1.366.874,5.18,5.18,0,0,1-1.671.285,5.594,5.594,0,0,1-2.752-.647,6.4,6.4,0,0,1-1.975-1.7.939.939,0,0,0-.583-.3.706.706,0,0,0-.557.181.648.648,0,0,0-.376.557,1.153,1.153,0,0,0,.227.706,6.689,6.689,0,0,0,2.694,2.1,8.1,8.1,0,0,0,3.14.647,7.168,7.168,0,0,0,2.739-.512,4.7,4.7,0,0,0,1.942-1.476,3.646,3.646,0,0,0,.738-2.286,3.937,3.937,0,0,0-.408-1.9A3.658,3.658,0,0,0,294.2,106.311Z" transform="translate(-90.023 -24.594)"/><path class="a" d="M317.562,98.706a7.538,7.538,0,0,0-10.509,2.862,8.935,8.935,0,0,0,0,8.23,7.543,7.543,0,0,0,2.739,2.855,7.725,7.725,0,0,0,7.77,0,7.556,7.556,0,0,0,2.726-2.855,8.935,8.935,0,0,0,0-8.23A7.718,7.718,0,0,0,317.562,98.706Zm1.146,10.23a5.9,5.9,0,0,1-2.065,2.247,5.75,5.75,0,0,1-5.925,0,5.99,5.99,0,0,1-2.078-2.247,6.669,6.669,0,0,1-.764-3.237,6.824,6.824,0,0,1,.764-3.237,5.668,5.668,0,0,1,8-2.24,5.75,5.75,0,0,1,2.066,2.189,6.974,6.974,0,0,1,.751,3.237,6.811,6.811,0,0,1-.751,3.289Z" transform="translate(-97.718 -24.577)"/><path class="a" d="M336.5,87.57a.874.874,0,0,0-.647.272.893.893,0,0,0-.265.647V108.95a.893.893,0,0,0,.253.647.848.848,0,0,0,.647.272.874.874,0,0,0,.647-.272.855.855,0,0,0,.266-.647V88.5a.906.906,0,0,0-.253-.648A.848.848,0,0,0,336.5,87.57Z" transform="translate(-108.131 -21.023)"/><path class="a" d="M357.27,98.343a.88.88,0,0,0-.647.272.906.906,0,0,0-.253.647v8.482a4.4,4.4,0,0,1-1.159,3.3,4.455,4.455,0,0,1-3.237,1.127,3.982,3.982,0,0,1-4.364-4.422v-8.5a.906.906,0,0,0-.253-.647.861.861,0,0,0-.647-.272.887.887,0,0,0-.647.272.874.874,0,0,0-.272.647v8.482a5.876,5.876,0,0,0,1.671,4.532,6.358,6.358,0,0,0,4.532,1.567,6.43,6.43,0,0,0,4.532-1.567,5.877,5.877,0,0,0,1.683-4.532V99.249a.906.906,0,0,0-.253-.648A.861.861,0,0,0,357.27,98.343Z" transform="translate(-111.727 -24.816)"/><path class="a" d="M377.213,95.994H374.2V92.653a.906.906,0,0,0-.253-.647.881.881,0,0,0-.647-.265.907.907,0,0,0-.647.265.874.874,0,0,0-.272.647v3.341h-2.169a.855.855,0,0,0-.615.24.809.809,0,0,0-.259.6.848.848,0,0,0,.259.647.822.822,0,0,0,.615.259h2.143v10.14a4.448,4.448,0,0,0,.388,2.072,2.253,2.253,0,0,0,.965,1.01,2.907,2.907,0,0,0,1.114.33c.363,0,.647.045.809.045a2.182,2.182,0,0,0,1.146-.285.829.829,0,0,0,.479-.706.777.777,0,0,0-.194-.544.648.648,0,0,0-.466-.207,1.3,1.3,0,0,0-.434.071,1.211,1.211,0,0,1-.44.078,2.02,2.02,0,0,1-.719-.136,1.133,1.133,0,0,1-.589-.557,2.765,2.765,0,0,1-.227-1.295V97.736H377.2a.822.822,0,0,0,.6-.246.79.79,0,0,0,.24-.6.867.867,0,0,0-.24-.648A.8.8,0,0,0,377.213,95.994Z" transform="translate(-120.028 -22.493)"/><path class="a" d="M397.964,99.512a6.365,6.365,0,0,0-2.208-1.386,7.278,7.278,0,0,0-2.59-.466,6.43,6.43,0,0,0-3.412.978,7.356,7.356,0,0,0-2.622,2.784,8.877,8.877,0,0,0-1,4.364,8.418,8.418,0,0,0,.991,4.15,7.064,7.064,0,0,0,2.752,2.765,8.172,8.172,0,0,0,4.105,1,6.417,6.417,0,0,0,3.16-.8,8.055,8.055,0,0,0,2.35-1.884.822.822,0,0,0,.3-.647.777.777,0,0,0-.22-.537.738.738,0,0,0-.557-.24.952.952,0,0,0-.648.265,5.653,5.653,0,0,1-1.068,1.042,5.451,5.451,0,0,1-1.489.8,5.523,5.523,0,0,1-1.865.3,6.1,6.1,0,0,1-3.283-.842,5.523,5.523,0,0,1-2.02-2.266,7.071,7.071,0,0,1-.725-3.186h11.376a.9.9,0,0,0,.648-.259.809.809,0,0,0,.272-.647,7.77,7.77,0,0,0-.648-3.069,7.065,7.065,0,0,0-1.593-2.214Zm-9.6,3.335a5.763,5.763,0,0,1,1.243-1.942,4.875,4.875,0,0,1,1.716-1.127,5.1,5.1,0,0,1,4.157.168,5.322,5.322,0,0,1,1.878,1.5,4.332,4.332,0,0,1,.9,2.389v.246H388.019A6.268,6.268,0,0,1,388.368,102.846Z" transform="translate(-125.945 -24.58)"/><path class="a" d="M428.538,107.161a.926.926,0,0,0-.648.136,10.73,10.73,0,0,1-2.454,1.14,9.376,9.376,0,0,1-6.151-.207,8.061,8.061,0,0,1-2.752-1.839,8.333,8.333,0,0,1-1.852-2.868,10.043,10.043,0,0,1-.647-3.717,9.893,9.893,0,0,1,.647-3.645,8.417,8.417,0,0,1,1.819-2.855,8.224,8.224,0,0,1,2.752-1.865,8.767,8.767,0,0,1,3.419-.647,9.065,9.065,0,0,1,2.8.421,9.3,9.3,0,0,1,2.435,1.172,1.476,1.476,0,0,0,.647.136.648.648,0,0,0,.524-.317.952.952,0,0,0,.214-.738.894.894,0,0,0-.421-.647,10.47,10.47,0,0,0-2.888-1.353,11.338,11.338,0,0,0-3.309-.486,10.47,10.47,0,0,0-7.5,3.089,10.7,10.7,0,0,0-3.095,7.718,11.194,11.194,0,0,0,.842,4.422,10.36,10.36,0,0,0,5.672,5.627,10.69,10.69,0,0,0,4.079.783,11.007,11.007,0,0,0,2.286-.246,11.206,11.206,0,0,0,2.163-.647,11.543,11.543,0,0,0,1.774-.919.725.725,0,0,0,.395-.57.952.952,0,0,0-.181-.725.881.881,0,0,0-.57-.35Z" transform="translate(-135.094 -21.52)"/><path class="a" d="M453.981,95.155a5.323,5.323,0,0,0-3.069-.829,5.549,5.549,0,0,0-2.078.408,6.819,6.819,0,0,0-1.865,1.114,6.25,6.25,0,0,0-1.263,1.431V88.5a.887.887,0,0,0-.259-.648.842.842,0,0,0-.648-.272.9.9,0,0,0-.647.272.874.874,0,0,0-.272.647V108.96a.9.9,0,0,0,.259.647.88.88,0,0,0,.647.272.932.932,0,0,0,.906-.9v-8.553a3.717,3.717,0,0,1,.693-2.214,5.141,5.141,0,0,1,1.819-1.58,5,5,0,0,1,2.389-.6,3.756,3.756,0,0,1,2.247.6,3.393,3.393,0,0,1,1.2,1.58,6.1,6.1,0,0,1,.382,2.214v8.515a.894.894,0,0,0,.932.9.932.932,0,0,0,.9-.9v-8.515a8.171,8.171,0,0,0-.557-3.069A4.753,4.753,0,0,0,453.981,95.155Z" transform="translate(-146.305 -21.027)"/><path class="a" d="M482.264,98.005a.881.881,0,0,0-.648.272.92.92,0,0,0-.259.648v1.865a5.825,5.825,0,0,0-1.146-1.476,6.391,6.391,0,0,0-1.943-1.237,6.779,6.779,0,0,0-6,.576,7.233,7.233,0,0,0-2.525,2.81,8.859,8.859,0,0,0-.932,4.137,9.129,9.129,0,0,0,.913,4.125,7.239,7.239,0,0,0,2.532,2.888,6.475,6.475,0,0,0,3.626,1.055,6.048,6.048,0,0,0,2.389-.466,6.747,6.747,0,0,0,1.942-1.2,5.912,5.912,0,0,0,1.2-1.5v1.942a.913.913,0,0,0,1.567.647.861.861,0,0,0,.272-.648v-13.5A.945.945,0,0,0,483,98.3.848.848,0,0,0,482.264,98.005Zm-3.432,13.17a4.953,4.953,0,0,1-2.823.822,5.051,5.051,0,0,1-2.849-.822,5.524,5.524,0,0,1-1.942-2.292,7.44,7.44,0,0,1-.693-3.237,7.168,7.168,0,0,1,.706-3.237,5.452,5.452,0,0,1,1.943-2.208,5.109,5.109,0,0,1,2.817-.8,4.953,4.953,0,0,1,2.823.822,5.763,5.763,0,0,1,1.942,2.26,7.045,7.045,0,0,1,.706,3.173,7.354,7.354,0,0,1-.706,3.237,5.685,5.685,0,0,1-1.923,2.279Z" transform="translate(-155.092 -24.57)"/><path class="a" d="M504.011,101.281l6.2-5.284a.861.861,0,0,0,.058-1.295.848.848,0,0,0-.648-.285.8.8,0,0,0-.6.3l-8.7,7.479V88.5a.887.887,0,0,0-.259-.647.842.842,0,0,0-.648-.272.861.861,0,0,0-.647.272.906.906,0,0,0-.253.647V108.96a.894.894,0,0,0,.253.647.861.861,0,0,0,.647.272.842.842,0,0,0,.648-.272.874.874,0,0,0,.259-.647v-4.532l2.266-1.942,6.611,7.045a.906.906,0,0,0,.693.33,1.03,1.03,0,0,0,.57-.24.777.777,0,0,0,.33-.647,1.01,1.01,0,0,0-.272-.693Z" transform="translate(-165.566 -21.027)"/><path class="a" d="M531.375,97.876a2.467,2.467,0,0,0-1.049-.227,5.025,5.025,0,0,0-2.331.537,6.079,6.079,0,0,0-1.794,1.418,7.237,7.237,0,0,0-1.185,1.91,1.844,1.844,0,0,0-.078.2V99.009a.887.887,0,0,0-.259-.647.835.835,0,0,0-.648-.272.907.907,0,0,0-.648.272.868.868,0,0,0-.265.647V112.49a.893.893,0,0,0,.932.9.932.932,0,0,0,.9-.9v-7.433a5.665,5.665,0,0,1,.408-2.091,6.868,6.868,0,0,1,1.094-1.878,5.924,5.924,0,0,1,1.535-1.34,3.322,3.322,0,0,1,1.69-.5,1.943,1.943,0,0,1,.822.149,1.34,1.34,0,0,0,.589.149.771.771,0,0,0,.57-.24.92.92,0,0,0,.246-.693A.764.764,0,0,0,531.375,97.876Z" transform="translate(-174.237 -24.577)"/><path class="a" d="M553.054,98.277a.848.848,0,0,0-.647-.272.881.881,0,0,0-.648.272.919.919,0,0,0-.259.647v1.865a5.671,5.671,0,0,0-1.146-1.476,6.391,6.391,0,0,0-1.943-1.237,6.779,6.779,0,0,0-6,.576,7.233,7.233,0,0,0-2.525,2.81,8.859,8.859,0,0,0-.984,4.176,9.129,9.129,0,0,0,.913,4.125,7.239,7.239,0,0,0,2.532,2.888,6.475,6.475,0,0,0,3.626,1.055,6.048,6.048,0,0,0,2.389-.466,6.656,6.656,0,0,0,1.942-1.2,6.026,6.026,0,0,0,1.2-1.5v1.942a.913.913,0,0,0,1.567.647.861.861,0,0,0,.272-.647V98.944a.945.945,0,0,0-.291-.667Zm-4.079,12.9a4.953,4.953,0,0,1-2.823.822,5.051,5.051,0,0,1-2.849-.822,5.524,5.524,0,0,1-1.942-2.292,7.441,7.441,0,0,1-.693-3.237,7.168,7.168,0,0,1,.706-3.237,5.452,5.452,0,0,1,1.942-2.208,5.122,5.122,0,0,1,2.817-.8,4.953,4.953,0,0,1,2.823.822,5.763,5.763,0,0,1,1.942,2.26,7.046,7.046,0,0,1,.706,3.173,7.355,7.355,0,0,1-.706,3.237A5.685,5.685,0,0,1,548.974,111.175Z" transform="translate(-179.799 -24.57)"/></g></svg>