<svg xmlns="http://www.w3.org/2000/svg" width="518.278" height="280.443" viewBox="0 0 518.278 280.443">
  <path id="Path_137" data-name="Path 137" d="M748.3,1608.024c38.081,38.991,70.45-33.363,79.971-65.732s53.314-79.971,74.258-32.369-13.328,150.421,38.081,169.462,89.491-57.122,59.026-91.4-99.743,37.059-135.189,20.035-26.657-79.061,11.424-65.732,41.889,81.875,104.724,85.683,78.067-19.041,78.067-47.6,11.578-73.528-19.041-70.45C960,1513,957.744,1717.466,875.869,1687s-106.628-140.9-64.738-177.078,102.819,213.255,247.528,169.462,85.683-156.133,47.6-169.462-99.011,95.2-154.229,49.506-36.177-139,19.041-123.764-93.3,220.871,9.52,266.569,211.351-60.93,184.694-114.244,100.915-57.122,100.915-57.122" transform="translate(-747.939 -1433.444)" fill="none" stroke="#707070" stroke-width="1"/>
</svg>
